# Blender 4.0.2
# www.blender.org
mtllib CATastrophePlate.mtl
o Cylinder
v 0.132268 0.004983 -0.586936
v 0.307177 0.004992 -0.517351
v 0.452010 0.004990 -0.397105
v 0.552605 0.004993 -0.237993
v 0.599091 0.004987 -0.055580
v 0.578642 0.004970 0.175422
v 0.462934 0.004994 0.384330
v 0.285096 0.004946 0.533159
v 0.055580 0.004992 0.599100
v -0.132271 0.004990 0.586950
v -0.356098 0.004969 0.490127
v -0.537803 0.004964 0.274024
v -0.599091 0.004987 0.055580
v -0.576184 0.004971 -0.187214
v -0.426810 0.004969 -0.426810
v -0.237985 0.004983 -0.552586
v -0.055581 0.004996 -0.599109
v 0.091862 0.082818 -0.579996
v 0.343903 0.082828 -0.473342
v 0.492937 0.082833 -0.311626
v 0.565129 0.082843 -0.144053
v 0.580517 0.082797 0.080195
v 0.518202 0.082849 0.264037
v 0.406111 0.082805 0.422524
v 0.137431 0.082790 0.572439
v -0.136300 0.082839 0.567732
v -0.382345 0.082799 0.447668
v -0.535617 0.082833 0.230677
v -0.580704 0.082842 0.053874
v -0.568911 0.082833 -0.128206
v -0.480890 0.082827 -0.335040
v -0.305068 0.082839 -0.497826
v -0.136009 0.082835 -0.566520
v -0.004806 0.178572 -0.965338
v 0.032546 0.229732 -0.983697
v 0.226270 0.227535 -0.956525
v 0.227992 0.177881 -0.939546
v 0.515638 0.230597 -0.840242
v 0.498031 0.178086 -0.829553
v 0.721477 0.228463 -0.669273
v 0.684772 0.178364 -0.679965
v 0.842917 0.226601 -0.508100
v 0.831642 0.178703 -0.494870
v 0.959361 0.230371 -0.227256
v 0.944420 0.178706 -0.211492
v 0.983694 0.229738 0.032551
v 0.965016 0.178419 -0.004850
v 0.956525 0.227566 0.226185
v 0.938702 0.177825 0.231770
v 0.839413 0.230539 0.516961
v 0.829496 0.178706 0.499049
v 0.670572 0.228497 0.720332
v 0.685797 0.178418 0.678938
v 0.505959 0.225829 0.844793
v 0.491931 0.178220 0.833196
v 0.226894 0.228492 0.960365
v 0.213145 0.178737 0.943850
v -0.080602 0.229580 0.982988
v -0.089426 0.178620 0.963450
v -0.378170 0.230411 0.910558
v -0.371490 0.178832 0.892646
v -0.607521 0.227835 0.774555
v -0.567558 0.178409 0.781176
v -0.672585 0.227561 0.719132
v -0.676500 0.178430 0.688187
v -0.842107 0.228859 0.514175
v -0.832186 0.177785 0.493700
v -0.959515 0.230083 0.227200
v -0.943861 0.178715 0.213090
v -0.982334 0.231037 -0.080095
v -0.963424 0.178770 -0.090162
v -0.910295 0.231891 -0.377057
v -0.894540 0.178130 -0.365963
v -0.773805 0.229425 -0.607419
v -0.775821 0.178495 -0.573804
v -0.720955 0.229336 -0.669354
v -0.682733 0.178475 -0.682733
v -0.492606 0.228149 -0.850559
v -0.495238 0.178814 -0.831470
v -0.229841 0.228214 -0.955778
v -0.210474 0.178773 -0.944828
v 0.080205 0.230732 -0.977986
v 0.069753 0.250392 -0.931173
v 0.279709 0.250562 -0.887771
v 0.268561 0.231792 -0.945307
v 0.499091 0.249926 -0.788625
v 0.515577 0.233155 -0.838848
v 0.712743 0.250575 -0.602015
v 0.751624 0.231343 -0.629653
v 0.827360 0.250669 -0.427001
v 0.861295 0.232777 -0.473508
v 0.905608 0.250297 -0.226091
v 0.957983 0.232952 -0.227752
v 0.931359 0.250456 0.068691
v 0.978866 0.230162 0.074212
v 0.887963 0.250639 0.278746
v 0.945382 0.231694 0.268479
v 0.787238 0.250476 0.499972
v 0.837640 0.233657 0.517003
v 0.607542 0.250034 0.706393
v 0.631806 0.232014 0.749491
v 0.411512 0.250777 0.834688
v 0.473078 0.233200 0.861284
v 0.225633 0.250570 0.906827
v 0.227841 0.233418 0.957734
v -0.062382 0.251035 0.931644
v -0.079689 0.232203 0.981811
v -0.359108 0.251265 0.862281
v -0.377962 0.231827 0.909958
v -0.608057 0.249876 0.707295
v -0.636126 0.232110 0.747832
v -0.791563 0.250734 0.494434
v -0.839473 0.233710 0.514057
v -0.905643 0.250588 0.225811
v -0.958119 0.232696 0.227703
v -0.931099 0.250590 -0.065133
v -0.982087 0.231586 -0.079903
v -0.862372 0.251723 -0.359210
v -0.910391 0.231661 -0.377096
v -0.712674 0.249714 -0.601781
v -0.752270 0.231342 -0.631430
v -0.543583 0.250384 -0.755310
v -0.540915 0.232598 -0.820104
v -0.353167 0.250481 -0.863411
v -0.374225 0.229665 -0.905189
v -0.149702 0.250567 -0.918730
v -0.184159 0.232797 -0.965456
vn 0.4091 -0.8979 -0.1628
vn 0.4329 -0.9004 -0.0444
vn 0.3415 -0.8999 0.2714
vn 0.0288 -0.8979 0.4393
vn -0.1077 -0.8981 0.4264
vn -0.2143 -0.8996 0.3804
vn -0.4395 -0.8978 0.0282
vn -0.4290 -0.8972 -0.1051
vn -0.1630 -0.8978 -0.4092
vn -0.2059 0.7654 -0.6097
vn -0.3679 0.8983 0.2404
vn 0.1022 0.8949 -0.4344
vn -0.0440 -0.9004 -0.4329
vn 0.4085 0.8960 -0.1740
vn 0.4421 0.8961 -0.0387
vn 0.4329 0.8953 0.1046
vn 0.3820 0.8955 0.2283
vn 0.2890 0.9033 0.3170
vn 0.0371 -0.9031 -0.4277
vn 0.3568 -0.9066 -0.2255
vn 0.4050 -0.8986 0.1685
vn 0.3736 -0.0722 0.9248
vn -0.0802 -0.9763 -0.2009
vn -0.1042 -0.9066 -0.4090
vn 0.1200 0.6896 -0.7142
vn 0.2978 0.8932 -0.3369
vn 0.6567 -0.7495 0.0837
vn 0.7963 -0.0702 -0.6008
vn 0.6291 0.6355 -0.4477
vn 0.3235 0.9460 -0.0203
vn 0.6025 0.0292 0.7976
vn 0.6970 0.7078 0.1146
vn 0.3833 0.8600 0.3368
vn -0.4925 0.7603 0.4236
vn 0.4609 0.6063 0.6480
vn 0.0681 0.4359 0.8974
vn -0.2108 0.4419 0.8719
vn -0.2985 0.8238 0.4819
vn -0.3268 -0.9057 0.2699
vn -0.2551 0.9535 -0.1605
vn -0.4052 -0.9071 0.1136
vn -0.8914 0.4480 0.0677
vn -0.8439 0.4964 -0.2034
vn -0.7042 0.3773 -0.6014
vn -0.6351 0.1633 -0.7550
vn -0.2465 0.8233 -0.5113
vn -0.0662 0.4900 -0.8692
vn -0.2923 0.8970 0.3315
vn -0.0000 -1.0000 -0.0000
vn -0.1700 0.9040 0.3922
vn -0.4322 0.9011 0.0341
vn -0.3117 0.9057 0.2872
vn -0.3999 0.9017 0.1642
vn -0.4318 0.8975 -0.0900
vn -0.3354 0.8963 -0.2900
vn -0.4024 0.9010 -0.1617
vn -0.1596 0.8986 -0.4088
vn -0.2176 0.9048 -0.3659
vn -0.3480 0.9047 -0.2459
vn 0.2171 0.8978 0.3831
vn -0.0365 0.8970 -0.4405
vn 0.0074 0.9071 -0.4208
vn 0.2299 0.8971 -0.3774
vn 0.3357 0.8976 -0.2858
vn 0.1847 0.9068 -0.3788
vn 0.3444 0.9068 -0.2431
vn 0.4118 0.9052 -0.1050
vn 0.4241 0.9052 0.0274
vn 0.3904 0.9055 0.1661
vn -0.0903 0.8966 0.4335
vn 0.1148 0.8986 0.4235
vn 0.1601 0.9051 0.3940
vn 0.2714 -0.9032 -0.3326
vn -0.0000 1.0000 -0.0000
vn 0.3180 -0.5745 -0.7543
vn 0.3423 -0.9000 -0.2700
vn 0.4090 -0.9066 -0.1043
vn 0.8760 -0.3298 -0.3521
vn 0.4252 -0.9042 0.0413
vn 0.3667 -0.9079 0.2032
vn 0.7772 -0.5364 0.3290
vn 0.2708 -0.9038 0.3313
vn 0.1604 -0.8986 0.4084
vn 0.1160 -0.9073 0.4042
vn -0.0272 -0.9066 0.4212
vn -0.1667 -0.9075 0.3856
vn -0.6014 0.3775 0.7041
vn -0.8337 0.4324 0.3434
vn -0.2827 -0.9003 0.3311
vn -0.4085 -0.8987 0.1596
vn -0.4173 -0.9079 -0.0393
vn -0.3637 -0.9055 -0.2186
vn -0.3295 -0.9012 -0.2815
vn -0.2333 -0.9071 -0.3503
vn -0.2692 -0.9006 -0.3414
vn 0.1618 -0.9022 -0.3998
vn 0.0253 0.9029 0.4291
vn 0.1124 -0.3638 -0.9247
vn 0.3597 -0.2956 -0.8850
vn 0.5990 -0.3170 -0.7354
vn 0.7325 -0.3734 -0.5692
vn 0.8744 -0.3330 -0.3530
vn 0.9521 -0.2914 -0.0923
vn 0.9228 -0.3686 0.1123
vn 0.8872 -0.2862 0.3618
vn 0.7376 -0.3105 0.5996
vn 0.5679 -0.3871 0.7264
vn 0.3502 -0.3507 0.8685
vn 0.0641 -0.3490 0.9349
vn -0.2270 -0.3299 0.9163
vn -0.4761 -0.3118 0.8223
vn -0.5969 -0.3912 0.7005
vn -0.7275 -0.3472 0.5917
vn -0.8736 -0.3367 0.3513
vn -0.9420 -0.3293 0.0648
vn -0.9249 -0.3046 -0.2277
vn -0.8218 -0.3116 -0.4771
vn -0.7062 -0.3711 -0.6030
vn -0.6011 -0.2566 -0.7569
vn -0.3504 -0.3264 -0.8779
vn -0.0986 -0.2621 -0.9600
vn 0.0631 0.9364 -0.3453
vn 0.1328 0.9432 -0.3045
vn 0.2356 0.9351 -0.2649
vn 0.2810 0.9398 -0.1946
vn 0.3154 0.9409 -0.1231
vn 0.3533 0.9352 -0.0235
vn 0.3521 0.9338 0.0630
vn 0.3046 0.9433 0.1316
vn 0.2547 0.9397 0.2282
vn 0.1816 0.9482 0.2607
vn 0.1246 0.9397 0.3186
vn 0.0266 0.9405 0.3388
vn -0.0803 0.9380 0.3372
vn -0.1869 0.9368 0.2957
vn -0.2532 0.9410 0.2245
vn -0.3020 0.9451 0.1247
vn -0.3387 0.9405 0.0262
vn -0.3431 0.9359 -0.0796
vn -0.3045 0.9328 -0.1930
vn -0.2415 0.9340 -0.2632
vn -0.1610 0.9365 -0.3114
vn -0.1075 0.9343 -0.3399
vn -0.0147 0.9296 -0.3682
vn 0.1118 -0.5308 -0.8401
vt 0.834700 0.955668
vt 0.786094 0.955679
vt 0.814732 0.500000
vt 0.784348 0.956294
vt 0.751286 0.956369
vt 0.764732 0.500000
vt 0.662969 0.956321
vt 0.626286 0.956364
vt 0.639732 0.500000
vt 0.534619 0.955638
vt 0.486298 0.955616
vt 0.514732 0.500000
vt 0.484543 0.955657
vt 0.438199 0.955726
vt 0.464732 0.500000
vt 0.399941 0.500000
vt 0.435939 0.956277
vt 0.399995 0.956347
vt 0.284610 0.955637
vt 0.236181 0.955617
vt 0.264732 0.500000
vt 0.233917 0.955627
vt 0.188615 0.955612
vt 0.200060 0.500000
vt 0.084765 0.955701
vt 0.035919 0.955718
vt 0.064732 0.500000
vt 0.037608 1.000000
vt 0.062763 1.000000
vt 0.029898 1.000000
vt 0.839732 0.500000
vt 0.826326 0.955016
vt 0.860845 0.954913
vt 0.462500 0.500000
vt 0.438113 0.953792
vt 0.488395 0.953911
vt 0.034181 0.956641
vt 0.001274 0.956769
vt 0.014732 0.500000
vt 0.314732 0.500000
vt 0.289834 0.953849
vt 0.337990 0.953873
vt 0.264732 0.500000
vt 0.239829 0.953846
vt 0.288020 0.953847
vt 0.214732 0.500000
vt 0.188180 0.953897
vt 0.238014 0.953852
vt 0.153125 0.500000
vt 0.138925 0.954414
vt 0.185962 0.954349
vt 0.087500 0.500000
vt 0.098856 0.954243
vt 0.964731 0.500000
vt 1.000000 0.500000
vt 1.000000 0.956769
vt 0.962202 0.956028
vt 0.835521 0.957115
vt 0.864732 0.500000
vt 0.711179 0.955883
vt 0.665173 0.955930
vt 0.703124 0.500000
vt 0.537202 1.000000
vt 0.536954 1.000000
vt 0.585677 1.000000
vt 0.579841 1.000000
vt 0.083121 1.000000
vt 0.062372 1.000000
vt 0.038012 1.000000
vt 0.034639 0.957299
vt 0.963055 1.000000
vt 0.987353 1.000000
vt 0.955834 1.000000
vt 0.912261 1.000000
vt 0.860911 1.000000
vt 0.868921 1.000000
vt 0.912371 1.000000
vt 0.744649 1.000000
vt 0.737967 1.000000
vt 0.713500 1.000000
vt 0.860994 1.000000
vt 0.836771 1.000000
vt 0.836360 1.000000
vt 0.861360 1.000000
vt 0.829901 1.000000
vt 0.737901 1.000000
vt 0.787049 1.000000
vt 0.787178 1.000000
vt 0.619206 1.000000
vt 0.611486 1.000000
vt 0.586325 1.000000
vt 0.713069 1.000000
vt 0.738352 1.000000
vt 0.705850 1.000000
vt 0.661957 1.000000
vt 0.611409 1.000000
vt 0.662114 1.000000
vt 0.337476 1.000000
vt 0.337269 1.000000
vt 0.380418 1.000000
vt 0.387912 1.000000
vt 0.585900 1.000000
vt 0.611858 1.000000
vt 0.487141 1.000000
vt 0.487009 1.000000
vt 0.437341 1.000000
vt 0.437347 1.000000
vt 0.387703 1.000000
vt 0.394035 1.000000
vt 0.334849 0.955792
vt 0.324959 0.500000
vt 0.377175 0.956402
vt 0.187500 1.000000
vt 0.138754 1.000000
vt 0.143978 1.000000
vt 0.285374 0.957150
vt 0.237110 1.000000
vt 0.237082 1.000000
vt 0.287034 1.000000
vt 0.287166 1.000000
vt 0.131007 1.000000
vt 0.138841 1.000000
vt 0.092934 1.000000
vt 0.083868 1.000000
vt 0.138970 1.000000
vt 0.083510 1.000000
vt 0.062081 1.000000
vt -0.005458 1.000000
vt 0.000000 1.000000
vt 0.036773 1.000000
vt 0.900042 0.500000
vt 0.863012 0.954181
vt 0.909826 0.954089
vt 0.977920 0.180876
vt 0.934118 0.097169
vt 0.862189 0.040154
vt 0.772123 0.011741
vt 0.697414 0.016566
vt 0.610146 0.057660
vt 0.537884 0.141991
vt 0.511741 0.227877
vt 0.523801 0.323402
vt 0.581643 0.418270
vt 0.655333 0.469761
vt 0.727877 0.488259
vt 0.802586 0.483434
vt 0.872147 0.455759
vt 0.929752 0.407943
vt 0.969761 0.344667
vt 0.988259 0.272123
vt 0.952269 0.954731
vt 0.975060 0.500000
vt 0.788972 0.954432
vt 0.789732 0.500000
vt 0.728124 0.500000
vt 0.737924 0.954876
vt 0.861434 0.955839
vt 0.702535 0.954944
vt 0.621876 0.500000
vt 0.613376 0.953303
vt 0.658539 0.953315
vt 0.675000 0.500000
vt 0.660363 0.952997
vt 0.537490 0.500000
vt 0.538771 0.955185
vt 0.571649 0.955320
vt 0.659738 0.954494
vt 0.062719 0.954298
vt 0.491074 0.955019
vt 0.489654 0.956441
vt 0.387490 0.500000
vt 0.387001 0.953947
vt 0.435393 0.953941
vt 0.340628 0.953954
vt 0.437192 0.955755
vt 0.338853 0.955624
vt 0.288897 0.955222
vt 0.238888 0.955228
vt 0.186995 0.955880
vt 0.987642 0.954696
vt 0.037500 0.500000
vt 0.026132 0.954740
vt 0.060922 0.954682
vt 0.061697 0.955582
vt 0.914732 0.500000
vt 0.913981 0.955921
vt 0.874101 0.956223
vt 0.805205 0.019941
vt 0.914907 0.078456
vt 0.963842 0.141042
vt 0.985927 0.217382
vt 0.981865 0.309123
vt 0.952246 0.377879
vt 0.889861 0.442608
vt 0.787113 0.484897
vt 0.694146 0.482649
vt 0.624987 0.454003
vt 0.554771 0.386042
vt 0.516566 0.302586
vt 0.511741 0.227876
vt 0.530239 0.155333
vt 0.596327 0.070113
vt 0.694146 0.017351
vt 0.962770 1.000000
vt 0.836444 0.956163
vt 0.784927 0.957123
vt 0.836116 1.000000
vt 0.663742 0.957555
vt 0.712783 1.000000
vt 0.578125 0.500000
vt 0.584638 0.955856
vt 0.536837 0.955840
vt 0.535390 0.957207
vt 0.485262 0.956898
vt 0.437074 0.957458
vt 0.387804 1.000000
vt 0.286719 0.955777
vt 0.235072 0.957295
vt 0.147833 0.956573
vt 0.125041 0.500000
vt 0.125004 0.956521
vt 0.085632 0.957412
vt 0.086864 0.956428
vt 0.000000 0.500000
vt 0.000000 0.954696
vt 0.994650 1.000000
vt 0.963486 1.000000
vt 0.987003 1.000000
s 0
usemtl Material.002
f 43/1/1 45/2/1 4/3/1
f 45/4/2 47/5/2 5/6/2
f 51/7/3 53/8/3 7/9/3
f 57/10/4 59/11/4 9/12/4
f 59/13/5 61/14/5 10/15/5
f 11/16/6 61/17/6 63/18/6
f 69/19/7 71/20/7 13/21/7
f 71/22/8 73/23/8 14/24/8
f 79/25/9 81/26/9 16/27/9
f 80/28/10 125/29/10 127/30/10
f 20/31/11 90/32/11 88/33/11
f 26/34/12 108/35/12 106/36/12
f 81/37/13 34/38/13 17/39/13
f 28/40/14 114/41/14 112/42/14
f 29/43/15 116/44/15 114/45/15
f 30/46/16 118/47/16 116/48/16
f 31/49/17 120/50/17 118/51/17
f 120/50/18 31/49/18 32/52/18 122/53/18
f 1/54/19 17/55/19 34/56/19 37/57/19
f 43/58/20 4/3/20 3/59/20
f 49/60/21 51/61/21 6/62/21
f 105/63/22 56/64/22 54/65/22 103/66/22
f 78/67/23 125/68/23 80/69/23
f 81/70/24 17/39/24 16/27/24
f 36/71/25 82/72/25 85/73/25
f 87/74/26 89/75/26 40/76/26 38/77/26
f 46/78/27 95/79/27 48/80/27
f 40/76/28 89/81/28 42/82/28
f 42/83/29 89/84/29 91/85/29
f 95/86/30 46/78/30 44/87/30 93/88/30
f 52/89/31 101/90/31 54/91/31
f 48/92/32 95/93/32 97/94/32
f 99/95/33 101/96/33 52/89/33 50/97/33
f 113/98/34 66/99/34 64/100/34 111/101/34
f 54/102/35 101/103/35 103/66/35
f 107/104/36 58/105/36 56/64/36 105/63/36
f 109/106/37 60/107/37 58/105/37 107/104/37
f 109/106/38 111/108/38 62/109/38 60/107/38
f 67/110/39 12/111/39 11/16/39 65/112/39
f 119/113/40 121/114/40 74/115/40 72/113/40
f 69/116/41 13/21/41 12/111/41
f 117/117/42 70/118/42 68/119/42 115/120/42
f 119/113/43 72/113/43 70/118/43 117/117/43
f 76/121/44 74/115/44 121/122/44
f 123/123/45 78/124/45 76/121/45 121/125/45
f 78/126/46 123/123/46 125/127/46
f 82/128/47 35/129/47 80/130/47 127/30/47
f 19/131/48 88/132/48 86/133/48
f 6/134/49 7/135/49 8/136/49 9/137/49 10/138/49 11/139/49 12/140/49 13/141/49 14/142/49 15/143/49 16/144/49 17/145/49 1/146/49 2/147/49 3/148/49 4/149/49 5/150/49
f 86/133/50 84/151/50 18/152/50 19/131/50
f 92/153/51 21/154/51 22/155/51 94/156/51
f 20/31/52 88/157/52 19/131/52
f 90/32/53 20/31/53 21/154/53 92/153/53
f 22/155/54 96/158/54 94/156/54
f 24/159/55 100/160/55 98/161/55
f 96/158/56 22/155/56 23/162/56 98/163/56
f 25/164/57 104/165/57 102/166/57
f 102/166/58 100/160/58 24/159/58 25/164/58
f 23/162/59 24/159/59 98/167/59
f 32/52/60 124/168/60 122/53/60
f 25/164/61 106/169/61 104/165/61
f 26/34/62 106/170/62 25/164/62
f 27/171/63 110/172/63 108/173/63
f 27/171/64 112/174/64 110/172/64
f 26/34/65 27/171/65 108/175/65
f 28/40/66 112/176/66 27/171/66
f 29/43/67 114/177/67 28/40/67
f 30/46/68 116/178/68 29/43/68
f 31/49/69 118/179/69 30/46/69
f 18/152/70 84/151/70 83/180/70
f 33/181/71 126/182/71 124/183/71
f 32/52/72 33/181/72 124/184/72
f 3/59/73 2/185/73 39/186/73 41/187/73
f 85/73/75 87/74/75 38/77/75 36/204/75
f 41/187/76 43/205/76 3/59/76
f 45/206/77 5/6/77 4/3/77
f 93/88/78 44/87/78 42/207/78 91/85/78
f 6/62/79 5/6/79 47/5/79 49/60/79
f 51/208/80 7/9/80 6/62/80
f 97/94/81 99/95/81 50/97/81 48/209/81
f 8/210/82 7/9/82 53/8/82 55/211/82
f 55/211/83 57/212/83 8/210/83
f 57/213/84 9/12/84 8/210/84
f 59/214/85 10/15/85 9/12/85
f 61/215/86 11/16/86 10/15/86
f 64/100/87 62/109/87 111/216/87
f 115/120/88 68/119/88 66/99/88 113/98/88
f 63/18/89 65/112/89 11/16/89
f 67/110/90 69/217/90 12/111/90
f 71/218/91 14/24/91 13/21/91
f 75/219/92 15/220/92 14/24/92 73/23/92
f 75/219/93 77/221/93 15/220/93
f 79/222/94 16/27/94 15/220/94
f 77/221/95 79/223/95 15/220/95
f 2/185/96 1/54/96 37/57/96 39/186/96
f 126/182/97 33/181/97 18/224/97 83/225/97
f 37/57/98 34/56/98 35/226/98 36/227/98
f 39/186/99 37/57/99 36/204/99 38/77/99
f 41/187/100 39/186/100 38/77/100 40/76/100
f 43/205/101 41/187/101 40/76/101 42/82/101
f 45/2/102 43/1/102 42/207/102 44/87/102
f 47/5/103 45/4/103 44/87/103 46/78/103
f 49/60/104 47/5/104 46/78/104 48/80/104
f 51/61/105 49/60/105 48/209/105 50/97/105
f 53/8/106 51/7/106 50/97/106 52/89/106
f 55/211/107 53/8/107 52/89/107 54/91/107
f 57/212/108 55/211/108 54/65/108 56/64/108
f 59/11/109 57/10/109 56/64/109 58/105/109
f 61/14/110 59/13/110 58/105/110 60/107/110
f 63/18/111 61/17/111 60/107/111 62/109/111
f 65/112/112 63/18/112 62/109/112 64/100/112
f 67/110/113 65/112/113 64/100/113 66/99/113
f 69/217/114 67/110/114 66/99/114 68/119/114
f 71/20/115 69/19/115 68/119/115 70/118/115
f 73/23/116 71/22/116 70/118/116 72/113/116
f 75/219/117 73/23/117 72/113/117 74/115/117
f 77/221/118 75/219/118 74/115/118 76/121/118
f 79/223/119 77/221/119 76/121/119 78/124/119
f 81/26/120 79/25/120 78/67/120 80/69/120
f 34/38/121 81/37/121 80/130/121 35/129/121
f 85/73/122 82/72/122 83/180/122 84/151/122
f 87/74/123 85/73/123 84/151/123 86/133/123
f 89/75/124 87/74/124 86/133/124 88/132/124
f 91/85/125 89/84/125 88/33/125 90/32/125
f 93/88/126 91/85/126 90/32/126 92/153/126
f 95/86/127 93/88/127 92/153/127 94/156/127
f 97/94/128 95/93/128 94/156/128 96/158/128
f 99/95/129 97/94/129 96/158/129 98/163/129
f 101/96/130 99/95/130 98/161/130 100/160/130
f 103/66/131 101/103/131 100/160/131 102/166/131
f 105/63/132 103/66/132 102/166/132 104/165/132
f 107/104/133 105/63/133 104/165/133 106/169/133
f 109/106/134 107/104/134 106/36/134 108/35/134
f 111/108/135 109/106/135 108/173/135 110/172/135
f 113/98/136 111/101/136 110/172/136 112/174/136
f 115/120/137 113/98/137 112/42/137 114/41/137
f 117/117/138 115/120/138 114/45/138 116/44/138
f 119/113/139 117/117/139 116/48/139 118/47/139
f 121/114/140 119/113/140 118/51/140 120/50/140
f 123/123/141 121/125/141 120/50/141 122/53/141
f 125/127/142 123/123/142 122/53/142 124/168/142
f 127/30/143 125/29/143 124/183/143 126/182/143
f 82/128/144 127/30/144 126/182/144 83/225/144
f 35/226/145 82/228/145 36/227/145
usemtl 
f 25/188/74 24/189/74 23/190/74 22/191/74 21/192/74 20/193/74 19/194/74 18/195/74 33/196/74 32/197/74 31/198/74 30/199/74 29/200/74 28/201/74 27/202/74 26/203/74
