# Blender 4.0.2
# www.blender.org
mtllib CatastropheBruhCatStandingPicture.mtl
o Picture
v -0.011389 0.300960 0.160913
v 0.042358 0.028141 -0.431505
v 0.042358 0.271859 0.171505
v 0.011389 0.221353 0.189887
v -0.011389 -0.000960 -0.420913
v -0.042358 0.250454 0.179296
v -0.040600 0.033997 -0.433636
v -0.032355 0.062394 -0.443972
v 0.011389 0.078647 -0.449887
v 1.000000 1.317524 -0.267605
v 1.000000 0.001955 0.211223
v -1.000000 0.001955 0.211223
v -1.000000 1.317524 -0.267605
v -0.864499 0.154033 0.219722
v -0.864499 1.206488 -0.163340
v 0.849786 1.206488 -0.163341
v 0.849786 0.154033 0.219722
v 1.000000 1.370850 -0.121093
v -1.000000 0.055281 0.357735
v 0.849786 1.239293 -0.073210
v 1.000000 0.055281 0.357735
v -1.000000 1.370850 -0.121093
v -0.864499 0.186837 0.309853
v -0.864499 1.239293 -0.073210
v 0.849786 0.186837 0.309852
vn 0.8663 0.4631 -0.1872
vn -0.0000 0.3420 0.9397
vn 0.4992 -0.8201 0.2799
vn -0.7865 -0.5831 0.2037
vn -0.9647 0.2473 -0.0901
vn -0.3677 0.8694 -0.3301
vn -0.0000 -0.3420 -0.9397
vn -0.0000 0.9397 -0.3420
vn -1.0000 -0.0000 -0.0000
vn 1.0000 -0.0000 -0.0000
vn -0.0000 -0.9397 0.3420
vn 0.4992 0.8201 -0.2799
vn 0.8663 -0.4631 0.1872
vn -0.4992 -0.8081 0.3127
vn -0.8664 0.4741 -0.1570
vt 0.791688 1.000000
vt 0.708312 0.500000
vt 0.941649 0.500000
vt 0.305968 0.040888
vt 0.459112 0.305968
vt 0.194032 0.459112
vt 0.040888 0.194032
vt 0.541688 1.000000
vt 0.458312 0.500000
vt 0.291688 1.000000
vt 0.270169 0.500000
vt 0.145169 0.500000
vt 0.058351 1.000000
vt 0.026221 0.500000
vt 0.517579 0.220342
vt 0.564682 0.393375
vt 0.805968 0.459112
vt 0.959112 0.194032
vt 0.694032 0.040888
vt 0.850000 0.516938
vt 0.850000 0.731223
vt 0.375000 0.250000
vt 0.625000 0.250000
vt 0.375000 0.500000
vt 0.099267 0.015050
vt 0.706288 0.990254
vt 0.099267 0.990254
vt 0.125000 0.750000
vt 0.125000 0.500000
vt 0.625000 1.000000
vt 0.375000 1.000000
vt 0.375000 0.750000
vt 0.875000 0.750000
vt 0.650000 0.731223
vt 0.625000 0.750000
vt 0.625000 0.500000
vt 0.375000 0.000000
vt 0.973779 1.000000
vt 0.706288 0.015050
vt 0.650000 0.516938
vt 0.875000 0.500000
vt 0.625000 0.000000
s 0
usemtl Material
f 3/1/1 2/2/1 9/3/1
f 4/4/2 3/5/2 1/6/2 6/7/2
f 4/8/3 5/9/3 2/2/3
f 6/10/4 7/11/4 5/9/4
f 6/10/5 8/12/5 7/11/5
f 1/13/6 9/14/6 8/12/6
f 7/15/7 8/16/7 9/17/7 2/18/7 5/19/7
f 14/20/8 25/21/8 17/21/8
f 12/22/9 19/23/9 13/24/9
f 13/24/7 11/28/7 12/29/7
f 21/30/10 11/31/10 10/32/10
f 21/33/2 25/21/2 23/20/2
f 20/34/2 18/35/2 22/36/2
f 11/37/11 19/23/11 12/22/11
f 10/32/10 18/35/10 21/30/10
f 13/24/8 22/36/8 10/32/8
f 1/38/12 3/1/12 9/3/12
f 3/1/13 4/8/13 2/2/13
f 4/8/14 6/10/14 5/9/14
f 6/10/15 1/13/15 8/12/15
f 20/34/9 16/34/9 17/21/9 25/21/9
f 13/24/9 19/23/9 22/36/9
f 23/20/10 14/20/10 15/40/10 24/40/10
f 24/40/11 15/40/11 16/34/11 20/34/11
f 24/40/2 22/36/2 19/41/2 23/20/2
f 13/24/7 10/32/7 11/28/7
f 19/41/2 21/33/2 23/20/2
f 24/40/2 20/34/2 22/36/2
f 18/35/2 20/34/2 25/21/2 21/33/2
f 11/37/11 21/42/11 19/23/11
f 14/20/8 23/20/8 25/21/8
f 10/32/8 22/36/8 18/35/8
usemtl Material.002
f 14/25/2 16/26/2 15/27/2
f 14/25/2 17/39/2 16/26/2
